# xmcd
#
# Track frame offsets:
#	150
#	17170
#	35602
#	50070
#	67595
#	83135
#	101355
#	121357
#	139995
#	155365
#	172384
#	190817
#	205287
#	222810
#	238352
#	256572
#	276572
#	295210
#	310505
#
# Disc length: 4366 seconds
#
# Revision: 4
# Processed by: cddbd v1.5.2PL0 Copyright (c) Steve Scherf et al.
# Submitted via: audiograbber 1.83.01
#
DISCID=19110c13
DTITLE=Various Artist - THC0006
DYEAR=2000
DGENRE=Country
TTITLE0=Phil Vassar (Vocal) - Carlene
TTITLE1=Clay Walker (Vocal) - Chain Of Love
TTITLE2=Jo Dee Messina (Vocal) - No Time For Tears
TTITLE3=Tim McGraw (Vocal) - Trouble With Never
TTITLE4=Neal McCoy (Vocal) - Forever Works For Me
TTITLE5=Lila McCann (Vocal) - Kiss Me Now
TTITLE6=George Strait and Alan Jackson  (Vocal) - Murder On Music Row
TTITLE7=Clay Davidson (Vocal) - Unconditional
TTITLE8=Chad Brock (Vocal) - Yes
TTITLE9=Phil Vassar - Carlene
TTITLE10=Clay Walker - Chain Of Love
TTITLE11=Jo Dee Messina - No Time For Tears
TTITLE12=Tim McGraw - Trouble With Never
TTITLE13=Neal McCoy - Forever Works For Me
TTITLE14=Lila McCann - Kiss Me Now
TTITLE15=George Strait and Alan Jackson  - Murder On Music Row
TTITLE16=Clay Davidson - Unconditional
TTITLE17=Chad Brock - Yes
TTITLE18=Coley McCabe and Andy Griggs - Grow Young With You
EXTD=
EXTT0=
EXTT1=
EXTT2=
EXTT3=
EXTT4=
EXTT5=
EXTT6=
EXTT7=
EXTT8=
EXTT9=
EXTT10=
EXTT11=
EXTT12=
EXTT13=
EXTT14=
EXTT15=
EXTT16=
EXTT17=
EXTT18=
PLAYORDER=
